<?xml version="1.0" standalone="no"?>
<!DOCTYPE svg PUBLIC "-//W3C//DTD SVG 1.1//EN" "http://www.w3.org/Graphics/SVG/1.1/DTD/svg11.dtd" >
<svg xmlns="http://www.w3.org/2000/svg">
<metadata>Generated by IcoMoon</metadata>
<defs>
<font id="bryston" horiz-adv-x="1024">
<font-face units-per-em="1024" ascent="960" descent="-64" />
<missing-glyph horiz-adv-x="1024" />
<glyph unicode="&#x20;" d="" horiz-adv-x="512" />
<glyph unicode="&#x21;" d="M605.248 448c0-47.081-38.167-85.248-85.248-85.248s-85.248 38.167-85.248 85.248c0 47.081 38.167 85.248 85.248 85.248 47.081 0 85.248-38.167 85.248-85.248zM520 755.2c-169.664 0-307.2-137.536-307.2-307.2 0-169.6 137.536-307.264 307.264-307.264 169.664 0 307.136 137.6 307.136 307.264 0 169.664-137.536 307.2-307.2 307.2zM520 318.656c-71.36 0-129.344 57.984-129.344 129.344s57.984 129.344 129.344 129.344 129.344-57.984 129.344-129.344-57.984-129.344-129.344-129.344zM928 960h-832c-53.056 0-96-43.008-96-96v-832c0-52.992 42.944-96 96-96h832c53.056 0 96 43.008 96 96v832c0 52.992-42.944 96-96 96zM901.12 156.096c0-53.76-43.584-97.28-97.28-97.28h-583.68c-53.696 0-97.28 43.52-97.28 97.28v583.808c0 53.696 43.584 97.28 97.28 97.28h583.68c53.696 0 97.28-43.584 97.28-97.28v-583.808z" />
<glyph unicode="&#x22;" d="M456 960h-360c-53.056 0-96-43.008-96-96v-352h122.88v227.904c0 53.696 43.584 97.28 97.28 97.28h235.84v122.816zM928 960h-344v-122.88h219.904c53.696 0 97.28-43.584 97.28-97.28v-227.84h122.816v352c0 52.992-42.944 96-96 96zM456 58.88h-235.84c-53.696 0-97.28 43.52-97.28 97.28v227.84h-122.88v-352c0-52.992 42.944-96 96-96h360v122.88zM901.12 384v-227.904c0-53.76-43.584-97.28-97.28-97.28h-219.84v-122.816h344c53.056 0 96 43.008 96 96v352h-122.88zM584 747.84v-187.904c19.776-11.584 36.288-27.968 47.744-47.936h188.544c-25.024 118.272-118.208 210.624-236.288 235.84zM456 747.776c-118.144-25.216-211.264-117.568-236.352-235.776h188.608c11.456 19.904 27.968 36.352 47.744 47.872v187.904zM456 336.128c-19.776 11.52-36.288 27.968-47.744 47.872h-188.544c25.088-118.144 118.208-210.624 236.288-235.84v187.968zM631.744 384c-11.456-19.968-27.968-36.352-47.744-47.936v-187.968c118.144 25.216 211.264 117.696 236.352 235.904h-188.608z" />
<glyph unicode="&#x23;" d="M512.064 641.6c161.6 0 306.368-73.088 403.456-187.712l108.48 91.712c-123.328 145.344-306.88 238.080-511.936 238.080-205.248 0-388.864-92.672-512.064-238.080l108.352-91.712c97.152 114.688 241.92 187.712 403.712 187.712zM511.936 378.304c81.344 0 154.112-36.608 202.944-94.336l108.416 91.776c-74.944 88.448-186.56 144.768-311.36 144.768-124.608 0-236.288-56.32-311.232-144.768l108.416-91.776c48.768 57.728 121.6 94.336 202.816 94.336zM408.384 200l103.552-87.616 103.68 87.616c0 0-39.488 48.64-103.68 48.64-64.128 0-103.552-48.64-103.552-48.64z" />
<glyph unicode="&#x24;" d="M662.272 553.92h-454.208c-47.936 0-86.912-38.976-86.912-86.912v-333.056c0-47.936 38.976-86.912 86.912-86.912h454.208c47.936 0 86.912 38.976 86.912 86.912v333.056c0 47.936-38.976 86.912-86.912 86.912zM696.448 133.952c0-18.88-15.296-34.176-34.176-34.176h-454.208c-18.816 0-34.176 15.296-34.176 34.176v333.056c0 18.816 15.36 34.176 34.176 34.176h454.208c18.88 0 34.176-15.36 34.176-34.176v-333.056zM916.864 194.496c0-33.438-27.106-60.544-60.544-60.544s-60.544 27.106-60.544 60.544c0 33.438 27.106 60.544 60.544 60.544 33.438 0 60.544-27.106 60.544-60.544zM916.864 406.464c0-33.438-27.106-60.544-60.544-60.544s-60.544 27.106-60.544 60.544c0 33.438 27.106 60.544 60.544 60.544 33.438 0 60.544-27.106 60.544-60.544zM906.56 665.664h-306.752l212.416 225.472c12.032 13.632 12.032 35.776 0 49.472-12.032 13.568-31.68 13.568-43.712 0l-256.128-274.944h-14.528l-140.16 158.72c-12.032 13.632-31.68 13.632-43.776 0-12.032-13.696-12.032-35.84 0-49.472l96.576-109.248h-293.056c-64.768 0-117.44-52.672-117.44-117.44v-485.632c0-64.768 52.672-117.44 117.44-117.44h789.12c64.768 0 117.44 52.672 117.44 117.44v485.632c0 64.768-52.672 117.44-117.44 117.44zM971.264 62.656c0-35.712-28.992-64.704-64.704-64.704h-789.12c-35.712 0-64.704 28.992-64.704 64.704v485.568c0 35.712 28.992 64.64 64.704 64.64h789.12c35.712 0 64.704-28.928 64.704-64.64v-485.568z" />
<glyph unicode="&#x25;" d="M472.064 173.056c0-33.438-27.106-60.544-60.544-60.544s-60.544 27.106-60.544 60.544c0 33.438 27.106 60.544 60.544 60.544 33.438 0 60.544-27.106 60.544-60.544zM368.512 296.192c0-33.438-27.106-60.544-60.544-60.544s-60.544 27.106-60.544 60.544c0 33.438 27.106 60.544 60.544 60.544 33.438 0 60.544-27.106 60.544-60.544zM260.032 173.056c0-33.438-27.106-60.544-60.544-60.544s-60.544 27.106-60.544 60.544c0 33.438 27.106 60.544 60.544 60.544 33.438 0 60.544-27.106 60.544-60.544zM906.56 696.576h-549.632l394.688 121.536c11.072-11.84 26.688-19.328 44.16-19.328 33.408 0 60.544 27.136 60.544 60.544s-27.136 60.544-60.544 60.544c-30.336 0-55.168-22.336-59.712-51.328l-549.888-169.344c-1.792-0.576-3.264-1.728-4.8-2.624h-64c-64.768 0-117.376-52.608-117.376-117.376v-485.696c0-64.768 52.608-117.44 117.376-117.44h789.184c64.768 0 117.44 52.672 117.44 117.44v485.696c0 64.768-52.672 117.376-117.44 117.376zM971.264 93.504c0-35.648-28.992-64.704-64.704-64.704h-789.184c-35.648 0-64.64 29.056-64.64 64.704v485.696c0 35.648 28.992 64.64 64.64 64.64h789.184c35.712 0 64.704-28.992 64.704-64.64v-485.696zM717.632 503.168c-104.448 0-189.376-84.928-189.376-189.376 0-104.512 84.928-189.44 189.376-189.44s189.44 84.928 189.44 189.44c0 104.448-84.992 189.376-189.44 189.376zM717.632 177.152c-75.392 0-136.64 61.312-136.64 136.704 0 75.328 61.248 136.64 136.64 136.64s136.704-61.312 136.704-136.64c0-75.392-61.312-136.704-136.704-136.704zM454.464 523.712h-262.784c-19.456 0-35.2-15.68-35.2-35.136s15.744-35.2 35.2-35.2h262.72c19.456 0 35.2 15.744 35.2 35.2s-15.744 35.136-35.136 35.136z" />
<glyph unicode="&#x26;" d="M968.256 595.008h-912.512c-30.72 0-55.744-25.024-55.744-55.744v-182.528c0-30.72 25.024-55.744 55.744-55.744h912.512c30.72 0 55.744 25.024 55.744 55.744v182.528c0 30.72-25.024 55.744-55.744 55.744zM55.744 564.608h912.512c13.952 0 25.344-11.392 25.344-25.344v-76.032h-742.208c-7.168 39.936-42.112 70.4-84.096 70.4-41.92 0-76.864-30.464-84.032-70.4h-52.8v76.032c0 14.016 11.264 25.344 25.28 25.344zM222.4 448c0-30.4-24.704-55.104-55.104-55.104s-55.040 24.768-55.040 55.104 24.704 55.104 55.040 55.104c30.4 0 55.104-24.704 55.104-55.104zM968.256 331.456h-912.512c-14.016 0-25.344 11.328-25.344 25.344v76.032h52.8c7.168-39.936 42.112-70.4 84.032-70.4 41.984 0 76.928 30.464 84.096 70.4h742.208v-76.032c0-14.080-11.328-25.344-25.28-25.344zM762.048 492.544h175.296c11.456 0 20.736 9.28 20.736 20.672s-9.344 20.672-20.736 20.672h-175.296c-11.456 0-20.672-9.28-20.672-20.672s9.28-20.672 20.672-20.672zM367.36 381.888c0-16.683-13.525-30.208-30.208-30.208s-30.208 13.525-30.208 30.208c0 16.683 13.525 30.208 30.208 30.208 16.683 0 30.208-13.525 30.208-30.208zM467.84 381.888c0-16.683-13.525-30.208-30.208-30.208s-30.208 13.525-30.208 30.208c0 16.683 13.525 30.208 30.208 30.208 16.683 0 30.208-13.525 30.208-30.208zM568.384 381.888c0-16.683-13.525-30.208-30.208-30.208s-30.208 13.525-30.208 30.208c0 16.683 13.525 30.208 30.208 30.208 16.683 0 30.208-13.525 30.208-30.208z" />
<glyph unicode="&#x27;" d="M716.8 232.96h266.24c22.592 0 40.96 18.368 40.96 41.024s-18.368 40.96-40.96 40.96h-266.24v266.176h266.24c22.592 0 40.96 18.304 40.96 40.96s-18.368 40.96-40.96 40.96h-266.24v92.16h-163.84c-148.672 0-272.64-105.536-301.056-245.76h-251.904v-122.88h251.968c28.416-140.224 152.384-245.76 301.056-245.76h163.84v92.16z" />
<glyph unicode="&#x28;" d="M989.824 550.4h-126.464c-7.488 25.856-17.792 50.496-30.592 73.6l89.472 89.472c13.312 13.312 13.312 34.944 0 48.256l-96.576 96.576c-13.312 13.312-34.944 13.312-48.256 0l-89.536-89.6c-23.040 12.672-47.68 22.912-73.472 30.336v126.848c0 18.88-15.232 34.112-34.112 34.112h-136.576c-18.816 0-34.176-15.232-34.176-34.112v-127.168c-25.536-7.488-50.048-17.728-73.024-30.4l-89.984 89.984c-13.312 13.312-34.944 13.312-48.32 0l-96.512-96.576c-13.312-13.248-13.312-34.944 0-48.256l90.304-90.24c-12.544-22.848-22.72-47.296-30.144-72.832h-127.68c-18.88 0-34.176-15.296-34.176-34.176v-136.512c0-18.816 15.296-34.112 34.176-34.112h127.872c7.424-25.472 17.6-49.856 30.144-72.704l-90.496-90.368c-13.312-13.312-13.312-35.008 0-48.32l96.512-96.576c13.312-13.312 34.944-13.312 48.32 0l90.304 90.368c22.848-12.608 47.232-22.72 72.704-30.336v-127.552c0-18.88 15.296-34.112 34.176-34.112h136.576c18.816 0 34.112 15.232 34.112 34.176v127.232c25.664 7.424 50.176 17.536 73.152 30.144l89.92-89.856c13.312-13.312 34.944-13.312 48.256 0l96.576 96.576c13.312 13.312 13.312 34.944 0 48.32l-89.6 89.6c12.736 23.040 22.976 47.616 30.528 73.408h126.656c18.816 0 34.112 15.296 34.112 34.176v136.448c0 18.88-15.296 34.176-34.176 34.176zM511.744 288.832c-88 0-159.232 71.232-159.232 159.168s71.232 159.232 159.232 159.232c87.936 0 159.232-71.296 159.232-159.232s-71.296-159.168-159.232-159.168z" />
<glyph unicode="&#x29;" d="M654.080 448c0-78.469-63.611-142.080-142.080-142.080-78.469 0-142.080 63.611-142.080 142.080 0 78.469 63.611 142.080 142.080 142.080 78.469 0 142.080-63.611 142.080-142.080zM512.064 960c-282.752 0-512.064-229.184-512.064-512 0-282.752 229.312-512 512.064-512 282.752 0 511.936 229.248 511.936 512 0 282.816-229.184 512-511.936 512zM512 232.384c-118.848 0-215.616 96.768-215.616 215.616 0 118.912 96.704 215.616 215.616 215.616 118.912 0 215.616-96.704 215.616-215.616 0-118.848-96.704-215.616-215.616-215.616z" />
<glyph unicode="&#x30;" d="M839.744 701.952h102.4v-512h-102.4v512zM983.040 640.512h40.96v-409.6h-40.96v409.6zM81.92 701.952h102.4v-512h-102.4v512zM0 640.512h40.96v-409.6h-40.96v409.6zM225.344 161.28h573.376v573.44h-573.376v-573.44zM402.944 370.368c13.952 3.456 27.776 2.368 39.040-2.176l0.064 208.192c0 0 91.072 41.024 202.304 37.312 0-42.24 0-246.464 0-246.464v0c-0.384-20.864-18.752-40.96-45.12-47.296-30.144-7.296-59.264 6.016-65.088 29.952-5.824 23.872 13.952 49.024 44.096 56.448 13.76 3.264 27.2 2.368 38.464-1.984v115.648c-83.52-5.568-147.968-28.096-147.968-28.096v-155.52c2.752-22.656-16.384-45.504-44.8-52.352-30.144-7.296-59.264 6.080-65.088 29.952-5.824 23.808 13.888 49.088 44.096 56.384z" />
<glyph unicode="&#x31;" d="M512.064 669.888c174.080 0 329.92-78.656 434.56-202.112l77.376 65.472c-123.2 145.472-306.88 238.208-511.936 238.208-205.12 0-388.8-92.736-512.064-238.208l77.44-65.472c104.64 123.456 260.544 202.112 434.624 202.112zM512.064 477.888c115.456 0 218.816-52.16 288.192-134.016l77.376 65.408c-88.064 103.872-219.136 170.048-365.568 170.048s-277.632-66.112-365.632-169.984l77.44-65.408c69.312 81.728 172.672 133.952 288.192 133.952zM512 289.92c58.048 0 110.016-26.24 144.896-67.392l77.44 65.472c-53.504 63.232-133.248 103.424-222.336 103.424-89.024 0-168.768-40.192-222.272-103.36l77.376-65.472c34.944 41.088 86.912 67.328 144.896 67.328zM438.080 162.56l73.92-62.592 73.984 62.656c0 0-28.16 34.688-73.984 34.688-45.76-0.064-73.92-34.752-73.92-34.752z" />
<glyph unicode="&#x32;" d="M512.576 154.496c-156.416-2.496-281.344 130.816-283.84 283.84-0.064 3.008 0.064 10.176 0.064 10.176h78.784l-153.792 147.456-153.792-147.456h75.904c-1.92-150.016 86.784-310.080 223.36-389.056 180.032-104.256 420.288-56 549.824 104.576 4.928 6.208 9.6 12.096 14.208 18.432l-136.576 72.64c-51.52-60.544-127.808-99.136-214.144-100.608zM511.488 741.504c156.352 2.496 281.28-130.816 283.776-283.84 0.064-3.072-0.064-10.176-0.064-10.176h-78.784l153.792-147.456 153.792 147.456h-75.904c1.92 150.016-86.784 310.080-223.36 389.056-180.032 104.256-420.288 56-549.824-104.512-4.992-6.208-9.6-12.096-14.208-18.432l136.576-72.64c51.52 60.48 127.808 99.072 214.208 100.544z" />
<glyph unicode="&#x33;" d="M512 924.032c-282.752 0-512-32.96-512-73.472v-225.792h1024v225.792c0 40.576-229.312 73.472-512 73.472zM0 521.088h1024v-222.72h-1024v222.72zM0 194.688h1024v-222.72h-1024v222.72z" />
<glyph unicode="&#x34;" d="M1023.744 830.144c-1.856 26.624-24.192 47.424-50.752 47.424h-921.92c-26.624 0-48.896-20.8-50.816-49.344l-0.256-622.912c0-28.096 22.912-51.072 51.072-51.072h327.36v-11.968c0-41.28-12.736-47.808-28.224-51.712-17.856-4.416-29.504-22.336-27.2-41.472 2.24-17.792 16.384-30.656 33.664-30.656h310.592c17.344 0 31.488 12.864 33.664 30.656 2.368 19.2-9.344 37.056-27.2 41.472-15.424 3.904-28.16 10.432-28.16 51.712v11.968h327.424c28.16 0 51.072 22.912 51.072 51.072l-0.32 624.832zM92.416 324.288v460.8h839.168v-460.8h-839.168zM781.44 658.816h-546.88c-22.208 0-40.192-17.984-40.192-40.192s17.984-40.192 40.192-40.192h546.944c22.208 0 40.192 17.984 40.192 40.192s-17.984 40.192-40.256 40.192zM781.44 521.216h-546.88c-22.208 0-40.192-17.984-40.192-40.192s17.984-40.192 40.192-40.192h546.944c22.208 0 40.192 17.984 40.192 40.192s-17.984 40.192-40.256 40.192z" />
<glyph unicode="&#x35;" d="M124.544 960v-1024h774.848v1024h-774.848zM604.608 230.144h-365.184v76.608h365.184v-76.608zM781.376 398.080h-541.952v76.544h541.952v-76.544zM781.376 565.952h-541.952v76.544h541.952v-76.544zM781.376 733.824h-541.952v76.544h541.952v-76.544z" />
<glyph unicode="&#x36;" d="M136.64 402.176v-441.92c0-13.376 11.2-24.256 24.96-24.256h700.608c13.888 0 25.152 10.88 25.152 24.256v441.92h-750.72zM644.288 192.704c0-6.016-4.736-10.88-10.816-10.88h-239.872c-5.952 0-10.816 4.864-10.816 10.88v108.672c0 5.952 4.864 10.816 10.816 10.816h31.68v-76.032c0-5.952 4.864-10.816 10.88-10.816h152.64c6.080 0 10.88 4.864 10.88 10.816v76.032h33.792c6.080 0 10.816-4.864 10.816-10.816v-108.672zM862.272 960h-700.672c-13.76 0-24.96-10.816-24.96-24.256v-420.096h750.72v420.096c0 13.44-11.264 24.256-25.088 24.256zM644.288 750.4c0-5.952-4.736-10.752-10.816-10.752h-239.872c-5.952 0-10.816 4.8-10.816 10.752v108.736c0 6.016 4.864 10.816 10.816 10.816h31.68v-76.032c0-6.080 4.864-10.88 10.88-10.88h152.64c6.080 0 10.88 4.8 10.88 10.88v76.032h33.792c6.080 0 10.816-4.8 10.816-10.816v-108.736z" />
<glyph unicode="&#x37;" d="M1012.544 119.744l-222.656 222.656c-7.040 6.912-18.432 6.912-25.344 0l-52.48-52.544 0.128-0.192-49.344-61.184c0 0-58.752 12.928-148.288 83.392 105.664 118.272 208.832 233.472 211.008 235.904 10.304 11.392 18.56 7.872 23.040 6.656 75.584-21.376 160.832-2.496 199.744 78.656 35.968 75.008 6.592 132.8-17.408 172.672-5.696 9.728-14.912 3.968-17.344-1.152-2.56-5.248-45.696-95.296-45.696-95.296-11.584-24.064-39.808-42.112-96.32-15.040-56.448 27.072-59.904 60.352-48.32 84.48 0 0 40.256 83.968 45.632 95.104 5.376 11.328-2.816 14.144-7.744 13.504-46.208-6.080-110.016-19.52-145.92-94.592-20.608-43.072-19.328-85.184-4.096-122.176 2.112-5.696 4.736-19.2-8.192-30.656-2.496-2.304-108.416-97.088-221.376-198.016-81.024 97.856-95.232 163.2-95.232 163.2l61.12 49.408 0.128-0.256 52.544 52.544c6.912 6.976 6.912 18.24 0 25.28l-222.72 222.656c-6.912 6.912-18.24 6.912-25.216 0l-52.48-52.48h0.128c-87.68-89.216-97.664-123.776-92.416-201.92 4.352-66.88 106.56-244.928 229.056-388.16-43.968-39.296-81.152-72.576-103.36-92.352 0 0 0-0.064 0.064-0.064-51.84-46.336-86.4-77.248-86.4-77.248-3.136-2.88-6.336-6.016-9.344-9.28-43.584-48.832-39.296-123.584 9.344-167.040 48.704-43.648 123.456-39.36 166.976 9.344 0 0 55.936 62.464 130.688 146.176v0c12.032 13.568 25.6 28.672 40.192 44.992 138.752-114.112 302.528-203.136 373.44-217.024 86.016-16.832 112.896 4.736 201.984 92.416l0.064-0.064 52.416 52.416c6.976 6.912 6.976 18.304 0 25.28z" />
<glyph unicode="&#x38;" d="M0 764.224v-632.512h1024v632.512h-1024zM475.072 273.984h-342.784v348.032h342.72v-348.032zM882.688 273.984h-288v60.096h288v-60.096zM882.688 369.984h-288v60.032h288v-60.032zM882.688 465.984h-288v60.032h288v-60.032z" />
<glyph unicode="&#x39;" d="M1024 763.456l-477.632-275.84v275.84l-546.368-315.456 546.368-315.456v275.712l477.632-275.712z" />
<glyph unicode="&#x40;" d="M0 132.544l477.632 275.84v-275.84l546.368 315.456-546.368 315.456v-275.712l-477.632 275.712z" />
<glyph unicode="&#x41;" d="M0 960h1024v-1024h-1024v1024z" />
<glyph unicode="&#x42;" d="M639.168 960h337.6v-1024h-337.6v1024zM47.168 960h337.6v-1024h-337.6v1024z" />
<glyph unicode="&#x43;" d="M68.544 960l886.912-512.064-886.912-511.936z" />
<glyph unicode="&#x44;" d="M156.352 465.792c0 56 45.376 95.744 101.376 95.744h482.304v-76.736l192.96 161.28-192.96 167.488v-95.808h-482.304c-142.336-0.064-257.728-109.952-257.728-252.288 0-69.952 28.032-131.008 73.28-177.088l122.752 102.144c-24 18.176-39.68 42.624-39.68 75.264zM950.72 607.36l-122.752-102.656c24-18.112 39.68-41.92 39.68-74.56 0-56-45.376-95.808-101.312-95.808h-482.368v76.8l-192.96-161.344 192.96-167.424v95.808h482.304c142.336 0 257.728 109.888 257.728 252.224 0 70.016-27.968 130.944-73.28 176.96z" />
<glyph unicode="&#x45;" d="M732.352 249.6c-23.936 7.488-54.4 27.072-88.448 61.248-29.184 28.672-59.328 65.472-90.304 105.728-7.36-9.856-14.72-19.648-22.208-29.696-20.096-27.392-40.832-54.976-61.888-82.112 73.472-89.28 149.76-176.768 262.848-191.168v-104.192l291.648 168.384-291.648 168.32v-96.512zM246.272 586.24c29.12-28.608 59.328-65.472 90.304-105.728 7.552 10.176 15.040 20.096 22.592 30.4 20.16 27.072 40.512 54.528 61.44 81.472-78.336 95.040-159.488 189.312-285.44 193.92h-135.104v-135.104h135.104c25.28 1.024 64.96-18.752 111.104-64.96zM732.352 647.616v-97.792l291.648 168.384-291.648 168.32v-102.144c-73.536-8.448-132.224-52.032-183.36-102.016-84.736-84.224-158.848-199.424-232-290.88-72-94.144-144.32-150.4-181.888-145.536h-135.104v-135.104h135.104c84.352 1.088 149.76 48.896 206.144 103.936 84.672 84.352 158.848 199.36 231.872 290.944 59.648 77.76 119.040 128.896 159.232 141.888z" />
<glyph unicode="&#x46;" d="M512 960c-282.752 0-512-229.248-512-512s229.248-512 512-512 512 229.248 512 512-229.248 512-512 512zM512 32c-229.76 0-416 186.24-416 416s186.24 416 416 416 416-186.24 416-416-186.24-416-416-416zM606.784 469.44c0-17.728 0.576-39.104 1.792-64.192l-145.28 277.44h-175.296v-469.44h128.64v212.672c0 17.6-0.896 40.768-2.688 69.184l146.112-281.792h175.936v469.44h-129.216v-213.312z" />
<glyph unicode="&#x47;" d="M816.128 930.176l-364.672-297.216h-184.768c-32.512 0-58.816-26.368-58.816-59.008v-251.968c0-32.576 26.368-58.944 58.816-58.944h185.024l364.48-297.216v964.352z" />
<glyph unicode="&#x48;" d="M608.32 930.176l-364.736-297.216h-184.768c-32.448 0-58.816-26.368-58.816-59.008v-251.968c0-32.64 26.368-59.008 58.816-59.008h185.024l364.48-297.216v964.416zM752 68.544c362.752 126.080 362.56 632.768 0 759.104-30.784 10.624-43.904-38.080-13.376-48.832 314.688-109.504 314.816-552.192 0-661.632-30.528-10.752-17.408-59.456 13.376-48.64zM753.856 253.568c149.632 91.776 149.504 297.088 0 388.928-27.84 17.088-52.992-26.56-25.472-43.52 117.184-72 117.184-230.080 0-302.016-27.52-16.896-2.368-60.48 25.472-43.392z" />
<glyph unicode="&#x49;" d="M1024 65.344l-347.392 347.2c27.264 50.624 42.816 108.608 42.816 170.176 0 198.656-160.96 359.808-359.68 359.808-198.656 0-359.808-161.216-359.808-359.808 0-198.656 161.216-359.808 359.808-359.808 79.616 0 152.96 26.112 212.48 70.016l339.776-339.648 112 112.064zM148.736 582.784c0 116.544 94.528 211.072 211.008 211.072 116.544 0 211.008-94.528 211.008-211.072s-94.464-211.008-211.008-211.008c-116.48 0-211.008 94.464-211.008 211.008z" />
<glyph unicode="&#x50;" d="M1024 574.016h-385.856v385.984h-252.288v-385.984h-385.856v-252.224h385.856v-385.792h252.288v385.792h385.856z" />
<glyph unicode="&#x51;" d="M0 574.016h1024v-252.16h-1024v252.16z" />
<glyph unicode="&#x52;" d="M868.608 932.032l-514.88-657.28-204.288 237.056-149.44-128.896 361.088-418.88 662.912 846.336z" />
<glyph unicode="&#x53;" d="M1022.208 856.384l-101.824 101.824-408.384-408.384-408.384 408.384-101.824-101.824 408.384-408.384-408.384-408.384 101.824-101.824 408.384 408.384 408.384-408.384 101.824 101.824-408.384 408.384z" />
<glyph unicode="&#x54;" d="M257.664 448c0-71.152-57.68-128.832-128.832-128.832s-128.832 57.68-128.832 128.832c0 71.152 57.68 128.832 128.832 128.832 71.152 0 128.832-57.68 128.832-128.832zM640.896 448c0-71.152-57.68-128.832-128.832-128.832-71.152 0-128.832 57.68-128.832 128.832 0 71.152 57.68 128.832 128.832 128.832 71.152 0 128.832-57.68 128.832-128.832zM1024 448c0-71.152-57.68-128.832-128.832-128.832s-128.832 57.68-128.832 128.832c0 71.152 57.68 128.832 128.832 128.832 71.152 0 128.832-57.68 128.832-128.832z" />
<glyph unicode="&#x55;" d="M832 494.272v209.728c0 141.184-114.88 256-256 256h-128c-141.12 0-256-114.816-256-256v-209.728c-38.144-22.208-64-63.040-64-110.272v-320c0-70.656 57.344-128 128-128h512c70.656 0 128 57.344 128 128v320c0 47.232-25.856 88.064-64 110.272zM704 512h-384v192c0 70.592 57.344 128 128 128h128c70.656 0 128-57.408 128-128v-192z" />
<glyph unicode="&#x56;" d="M832 494.272l-128 17.728h-384v192c0 70.592 57.344 128 128 128h128c70.656 0 128-57.408 128-128h128c0 141.184-114.88 256-256 256h-128c-141.12 0-256-114.816-256-256v-209.728c-38.144-22.208-64-63.040-64-110.272v-320c0-70.656 57.344-128 128-128h512c70.656 0 128 57.344 128 128v320c0 47.232-25.856 88.064-64 110.272z" />
<glyph unicode="&#x57;" d="M0 169.664l511.936 556.608 512.064-556.608z" />
<glyph unicode="&#x58;" d="M233.728 960l556.544-511.936-556.544-512.064z" />
<glyph unicode="&#x59;" d="M1024 726.272l-511.936-556.544-512.064 556.544z" />
<glyph unicode="&#x60;" d="M790.272-64l-556.544 511.936 556.544 512.064z" />
<glyph unicode="&#x61;" d="M188.416 454.208l518.144-518.208 129.024 129.088-387.264 387.2 378.624 378.688-129.024 129.024-378.688-378.624-1.792 1.792z" />
<glyph unicode="&#x62;" d="M835.584 441.792l-518.144 518.208-129.024-129.088 387.264-387.2-378.624-378.688 129.024-129.024 378.688 378.624 1.792-1.792z" />
<glyph unicode="&#x63;" d="M0 960v-1024h1024v1024h-1024zM780.032 296.896v0c-0.768-38.976-35.136-76.608-84.416-88.512-56.512-13.696-110.848 11.264-121.728 56-10.88 44.544 26.048 91.84 82.432 105.536 25.728 6.272 50.944 4.352 72-3.648v216.384c-156.352-10.496-276.864-52.672-276.864-52.672v-290.944c5.184-42.176-30.72-84.992-83.904-97.856-56.384-13.696-110.848 11.328-121.728 55.936-10.88 44.608 26.048 91.968 82.496 105.664 26.112 6.336 51.904 4.288 73.024-4.096l0.128 389.376c0 0 170.432 76.8 378.496 69.952 0.064-79.168 0.064-461.12 0.064-461.12z" />
<glyph unicode="&#x64;" d="M0 940.352h1024v-151.168h-1024v151.168zM0 662.592h1024v-151.168h-1024v151.168zM0 384.64h1024v-151.168h-1024v151.168zM0 106.816h1024v-151.168h-1024v151.168z" />
<glyph unicode="&#x65;" d="M0 960h429.056v-429.056h-429.056v429.056zM594.944 960h429.056v-429.056h-429.056v429.056zM0 365.056h429.056v-429.056h-429.056v429.056zM594.944 365.056h429.056v-429.056h-429.056v429.056z" />
<glyph unicode="&#x66;" d="M839.68 701.952h102.464v-512.064h-102.464v512.064zM982.976 640.448h41.024v-409.536h-41.024v409.536zM81.856 701.952h102.464v-512.064h-102.464v512.064zM0 640.448h41.024v-409.536h-41.024v409.536zM225.344 734.72h573.376v-573.504h-573.376v573.504z" />
</font>
</defs>
</svg>
