<svg xmlns="http://www.w3.org/2000/svg" xmlns:xlink="http://www.w3.org/1999/xlink" version="1.1" id="Layer_1" x="0" y="0" width="20" height="19" viewBox="0" enable-background="new 0 0 20 19" xml:space="preserve">
  <path id="Search" fill="#525252" d="M19.83 16.84l-6.67-6.66C13.68 9.2 13.98 8.09 13.98 6.91 13.98 3.09 10.89 0 7.08 0 3.27 0 0.17 3.09 0.17 6.91s3.09 6.9 6.91 6.9c1.53 0 2.94-0.5 4.08-1.34l6.52 6.52L19.83 16.84zM3.03 6.91c0-2.24 1.81-4.05 4.05-4.05 2.24 0 4.05 1.81 4.05 4.05s-1.81 4.05-4.05 4.05C4.84 10.95 3.03 9.14 3.03 6.91z"/>
</svg>
